<svg width="75" height="41" viewBox="0 0 75 41" fill="none" xmlns="http://www.w3.org/2000/svg">
<g id="Group 1">
<path id="Vector" d="M74.7037 27.0852C74.3085 25.8861 73.934 24.8731 73.6428 23.8188C73.4556 23.1573 73.0812 22.9712 72.4363 22.9919C70.3978 23.0746 68.3384 22.9712 66.3206 23.2193C64.3028 23.4674 62.9299 22.8678 62.0146 21.0693C61.7442 20.5318 61.2866 20.0563 60.8913 19.5808C60.3505 18.9399 60.2465 18.299 60.5585 17.4928C61.453 15.2187 62.2227 12.9033 63.1171 10.6086C63.4084 9.86437 63.2627 9.40956 62.5971 8.97542C61.3698 8.14849 60.2257 7.25955 59.04 6.43262C57.3759 5.29559 57.8335 5.2129 56.1694 6.45329C54.3388 7.81772 52.5083 9.16148 50.6985 10.5673C50.1161 11.0221 49.5544 11.0841 48.8679 10.836C47.7654 10.4225 46.663 10.0091 45.5189 9.76101C44.5412 9.5336 44.0835 8.97542 43.8339 8.0658C43.1683 5.7504 42.4194 3.45567 41.7537 1.14027C41.5665 0.478726 41.2337 0.147955 40.5472 0.127281C38.8415 0.106608 37.1566 0.106608 35.4716 0.0239153C34.5355 -0.0174311 34.0155 0.313341 33.7451 1.24364C33.121 3.49702 32.3722 5.70905 31.7273 7.96244C31.4777 8.85138 31.0617 9.36821 30.1048 9.57495C28.8983 9.8437 27.6918 10.2158 26.5477 10.6706C25.7572 10.9807 25.1748 10.836 24.5507 10.3605C22.5121 8.81004 20.4528 7.30089 18.435 5.72973C17.8942 5.31626 17.4781 5.31626 16.9581 5.70905C15.502 6.76339 14.025 7.79705 12.5481 8.78936C11.9241 9.20283 11.9032 9.63697 12.1529 10.2778C13.0681 12.6553 13.9418 15.0534 14.7531 17.4514C14.8987 17.8856 14.7531 18.5471 14.5035 18.9399C13.7546 20.0976 12.8393 21.152 12.0697 22.289C11.612 22.9505 11.0712 23.2193 10.2599 23.1779C7.7013 23.0746 5.14268 23.0125 2.56327 22.9919C2.20964 22.9919 1.64799 23.1573 1.54398 23.4053C1.06554 24.563 0.711911 25.7621 0.254272 27.0852C0.81592 27.0852 1.19035 27.0852 1.58558 27.0852C5.3923 27.0852 9.21982 27.0025 13.0265 27.1265C14.5243 27.1679 15.5228 26.8784 16.022 25.39C16.1884 24.9145 16.5628 24.501 16.8333 24.0876C23.1154 14.4538 35.9917 10.5673 46.6214 15.0327C52.1338 17.3481 56.2734 21.1106 59.1232 26.3409C59.2896 26.6717 59.7473 27.0645 60.0593 27.0645C64.8645 27.1058 69.6905 27.0852 74.7037 27.0852Z" fill="white"/>
<path id="Vector_2" d="M74.7037 27.0853C69.6697 27.0853 64.8645 27.106 60.0385 27.044C59.7264 27.044 59.2688 26.6512 59.1024 26.3204C56.2525 21.0901 52.113 17.3276 46.6005 15.0122C35.9916 10.5674 23.1154 14.454 16.7916 24.067C16.5004 24.5012 16.126 24.894 15.9804 25.3695C15.4811 26.8579 14.4826 27.168 12.9849 27.106C9.1782 26.982 5.37148 27.0647 1.54396 27.0647C1.16953 27.0647 0.795095 27.0647 0.212646 27.0647C0.649483 25.7622 1.00311 24.5425 1.50235 23.3848C1.60636 23.1367 2.16801 22.9714 2.52164 22.9714C5.08025 22.992 7.65967 23.0541 10.2183 23.1574C11.0504 23.1988 11.5704 22.93 12.028 22.2685C12.8185 21.1314 13.713 20.0771 14.4618 18.9194C14.7115 18.5266 14.8571 17.8651 14.7115 17.4309C13.9002 15.0122 13.0057 12.6347 12.1112 10.2573C11.8616 9.61646 11.9032 9.18232 12.5065 8.76886C14.0042 7.77654 15.4603 6.72221 16.9164 5.68854C17.4365 5.31643 17.8525 5.29575 18.3934 5.70922C20.4111 7.28038 22.4913 8.78953 24.5091 10.34C25.1331 10.8155 25.7156 10.9809 26.506 10.6501C27.6501 10.1953 28.8566 9.82319 30.0631 9.55444C31.02 9.3477 31.4361 8.83087 31.6857 7.94193C32.3097 5.68854 33.0586 3.47651 33.7034 1.22313C33.9739 0.292833 34.4939 -0.0379389 35.43 0.0034075C37.1149 0.0861004 38.8207 0.0861004 40.5056 0.106774C41.2129 0.106774 41.5249 0.437545 41.7121 1.11976C42.3778 3.43516 43.1266 5.72989 43.7923 8.04529C44.0419 8.95491 44.4996 9.51309 45.4772 9.7405C46.6213 10.0092 47.7238 10.402 48.8263 10.8155C49.5128 11.0843 50.0744 11.0016 50.6569 10.5468C52.4666 9.16165 54.2972 7.79721 56.1277 6.43278C57.7919 5.19239 57.355 5.27508 58.9984 6.41211C60.1841 7.23904 61.349 8.12799 62.5555 8.91357C63.2211 9.34771 63.3667 9.80252 63.0755 10.5468C62.2018 12.8208 61.4114 15.1362 60.5169 17.4309C60.2049 18.2372 60.3089 18.8781 60.8497 19.5189C61.245 19.9944 61.6818 20.4699 61.973 21.0074C62.8883 22.806 64.2612 23.4055 66.279 23.1574C68.2967 22.9093 70.3561 23.0127 72.3947 22.93C73.0395 22.9093 73.414 23.1161 73.6012 23.7569C73.9548 24.8733 74.3293 25.8863 74.7037 27.0853Z" fill="#FF3811"/>
<path id="Vector_3" d="M53.5691 34.0731C51.1145 31.6543 48.6391 29.2149 46.1637 26.7548C45.7269 26.3207 45.4564 26.6101 45.1444 26.9202C43.9795 28.0986 42.8146 29.2769 41.6289 30.414C40.8801 31.1375 40.0688 31.8404 39.2783 32.5433C39.3407 32.6467 39.4031 32.7294 39.4655 32.8327C41.7745 32.3779 43.7923 32.8534 45.4564 34.4866C47.0998 36.1198 47.5366 38.1664 47.1206 40.3784C49.284 38.2698 51.3849 36.2025 53.5691 34.0731Z" fill="white"/>
<path id="Vector_4" d="M35.638 32.7085C35.326 32.357 35.1803 32.1296 34.9931 31.9435C33.329 30.2897 31.6233 28.6772 30.0007 26.982C29.4183 26.3824 29.0646 26.4031 28.503 26.982C26.3396 29.1733 24.1762 31.3233 21.9504 33.4527C21.3888 33.9902 21.5136 34.321 21.992 34.7964C23.7394 36.5123 25.4659 38.2489 27.2133 39.9648C27.3589 40.1095 27.5669 40.1922 27.8165 40.3575C27.0885 35.396 30.5832 31.9849 35.638 32.7085Z" fill="white"/>
<path id="Vector_5" d="M27.5461 24.6045C24.9043 27.2713 22.3457 29.8762 19.8079 32.4396C19.9951 32.6877 20.2447 33.0392 20.4735 33.3286C23.1569 30.6617 25.7364 28.1189 28.4822 25.4107C28.191 25.1627 27.8581 24.8732 27.5461 24.6045Z" fill="white"/>
<path id="Vector_6" d="M57.0638 30.6617C57.0014 30.5584 56.9598 30.4343 56.8766 30.331C54.526 27.9949 52.1962 25.6795 49.8456 23.3434C49.4504 22.9506 49.1591 22.9299 48.7223 23.3434C48.2647 23.7982 48.3479 24.1083 48.7639 24.5218C50.8649 26.5684 52.9243 28.6358 55.0044 30.7031C55.3373 31.0339 55.6909 31.3439 56.1693 31.7988C56.4814 31.406 56.731 31.0959 57.0638 30.6617Z" fill="white"/>
<path id="Vector_7" d="M55.3997 32.3154C52.9867 29.9173 50.6153 27.5813 48.2439 25.2038C47.8487 24.811 47.5159 24.5009 46.975 25.0798C46.455 25.638 46.7462 25.9687 47.1622 26.3615C49.284 28.4495 51.385 30.5375 53.486 32.6255C54.422 33.5765 54.4428 33.5765 55.3997 32.3154Z" fill="white"/>
<path id="Vector_8" d="M26.6725 23.8395C25.7364 22.7025 25.7572 22.7025 24.7587 23.6741C22.7201 25.7001 20.6816 27.7054 18.6638 29.7314C17.6861 30.703 17.7069 30.8271 18.8718 31.4886C21.472 28.9458 24.0514 26.403 26.6725 23.8395Z" fill="white"/>
<path id="Vector_9" d="M53.5691 34.073C51.3849 36.223 49.284 38.2696 47.1206 40.399C47.5366 38.1869 47.0998 36.161 45.4564 34.5071C43.7923 32.8532 41.7537 32.3984 39.4655 32.8532C39.4031 32.7499 39.3407 32.6672 39.2783 32.5638C40.0688 31.8609 40.8593 31.1787 41.6289 30.4345C42.8146 29.2768 43.9795 28.1191 45.1444 26.9407C45.4564 26.6306 45.7269 26.3412 46.1637 26.7753C48.6391 29.1941 51.1145 31.6335 53.5691 34.073ZM47.8902 30.7239C47.4534 31.3027 46.9334 31.6955 46.975 31.985C47.0374 32.3364 47.5782 32.6258 47.911 32.9359C48.2023 32.6258 48.7015 32.3157 48.7223 31.985C48.7639 31.6542 48.3063 31.2821 47.8902 30.7239Z" fill="white"/>
<path id="Vector_10" d="M35.638 32.7083C30.5624 31.9847 27.0885 35.3958 27.8165 40.378C27.5669 40.2127 27.3589 40.13 27.2133 39.9853C25.4659 38.2694 23.7394 36.5328 21.992 34.817C21.5136 34.3415 21.3888 34.0107 21.9504 33.4732C24.1554 31.3438 26.3396 29.1732 28.503 27.0025C29.0646 26.4236 29.4183 26.4029 30.0007 27.0025C31.6233 28.6977 33.329 30.3102 34.9931 31.964C35.1803 32.1294 35.3468 32.3568 35.638 32.7083ZM28.3782 32.0467C27.7957 31.5713 27.4213 31.0544 27.1509 31.0958C26.7764 31.1578 26.4644 31.6746 26.1316 31.9847C26.4436 32.2948 26.714 32.791 27.0677 32.853C27.3589 32.8943 27.7541 32.4395 28.3782 32.0467Z" fill="white"/>
<path id="Vector_11" d="M27.5461 24.6045C27.8581 24.8732 28.191 25.142 28.4822 25.4107C25.7572 28.1189 23.1777 30.6617 20.4735 33.3286C20.2447 33.0185 19.9743 32.6671 19.8079 32.4396C22.3457 29.8762 24.9251 27.2713 27.5461 24.6045Z" fill="white"/>
<path id="Vector_12" d="M57.0638 30.6618C56.731 31.096 56.4814 31.406 56.1694 31.8195C55.6909 31.3647 55.3373 31.0546 55.0045 30.7238C52.9243 28.6565 50.8649 26.5892 48.7639 24.5425C48.3271 24.1291 48.2439 23.819 48.7223 23.3642C49.1384 22.9507 49.4504 22.9714 49.8456 23.3642C52.1754 25.7002 54.526 28.0156 56.8766 30.3517C56.9598 30.4137 57.0014 30.5584 57.0638 30.6618Z" fill="white"/>
<path id="Vector_13" d="M55.3997 32.3154C54.4636 33.5765 54.4428 33.5765 53.486 32.6255C51.385 30.5375 49.284 28.4289 47.1622 26.3615C46.7462 25.9687 46.455 25.638 46.975 25.0798C47.5159 24.5009 47.8487 24.811 48.2439 25.2038C50.6153 27.5813 52.9867 29.9173 55.3997 32.3154Z" fill="white"/>
<path id="Vector_14" d="M26.6725 23.8396C24.0514 26.4237 21.472 28.9458 18.8718 31.5093C17.7069 30.8478 17.6861 30.7237 18.6638 29.7521C20.7024 27.7261 22.7409 25.7208 24.7587 23.6948C25.7572 22.7025 25.7572 22.7025 26.6725 23.8396Z" fill="white"/>
<path id="Vector_15" d="M47.8903 30.7236C48.2855 31.3025 48.7432 31.6539 48.7224 31.9847C48.7016 32.3155 48.2023 32.6256 47.9111 32.9357C47.5783 32.6256 47.0374 32.3568 46.975 31.9847C46.9334 31.6953 47.4534 31.3025 47.8903 30.7236Z" fill="white"/>
<path id="Vector_16" d="M28.3782 32.0469C27.7542 32.4397 27.3797 32.8945 27.0469 32.8325C26.6933 32.7912 26.4229 32.2743 26.1108 31.9642C26.4437 31.6541 26.7557 31.1373 27.1301 31.0753C27.4213 31.0546 27.7958 31.5921 28.3782 32.0469Z" fill="white"/>
</g>
</svg>
